<svg xmlns="http://www.w3.org/2000/svg" version="1.1" xmlns:xlink="http://www.w3.org/1999/xlink" xmlns:svgjs="http://svgjs.dev/svgjs" width="100%" height="100%" viewBox="0 0 1000 600"><rect width="1000" height="600" x="0" y="0" fill="#552d19"/><g><rect width="333.3333333333333" height="333.3333333333333" rx="13.333333333333334" ry="13.333333333333334" y="348.86459969300023" fill="#f5b571" transform="matrix(0.38268147099169814,0,0,0.3826814709916982,0,102.71571975462187)" x="326.64233398437494"/><path d="M492.2673327601852 590.5312490326389L439.11076761568063 590.5312490326389L439.11076761568063 440.53125047759994L492.5198580102778 440.53125047759994Q519.09814058253 440.53125047759994 531.3771808682857 451.67392713793845Q543.6562211540411 462.816603798277 543.6562211540411 481.8822601802727L543.6562211540411 481.8822601802727Q543.6562211540411 493.24589643444233 537.0589989953705 502.46306806282433Q530.4617768366998 511.6802396912064 518.4036961447753 514.1739265358714L518.4036961447753 514.1739265358714L518.4036961447753 514.3948861297024Q531.8191000559477 516.8885729743674 539.6789484650817 526.5476637904117Q547.5072312179541 536.2067546064558 547.5072312179541 548.4857948922113L547.5072312179541 548.4857948922113Q547.5072312179541 567.5830169304686 533.1764232751957 579.0413501534229Q518.8771809886991 590.5312490326389 492.2673327601852 590.5312490326389L492.2673327601852 590.5312490326389ZM457.292585622352 523.4857951330382L457.292585622352 573.4857946513844L496.59182766802195 573.4857946513844Q512.7218780176904 573.4857946513844 520.5817264268244 566.8885724927138Q528.410009179697 560.291350334043 528.410009179697 548.4857948922113L528.410009179697 548.4857948922113Q528.410009179697 536.4277142002868 520.5817264268244 529.9567546666625Q512.7218780176904 523.4857951330382 496.59182766802195 523.4857951330382L496.59182766802195 523.4857951330382L457.292585622352 523.4857951330382ZM457.292585622352 457.5767048588544L457.292585622352 506.4403407517837L492.74081760410894 506.4403407517837Q524.5589991157838 506.4403407517837 524.5589991157838 481.8822601802727L524.5589991157838 481.8822601802727Q524.5589991157838 457.5767048588544 492.74081760410894 457.5767048588544L492.74081760410894 457.5767048588544L457.292585622352 457.5767048588544Z " fill="#552d19" transform="matrix(0.38268147099169814,0,0,0.3826814709916982,0,102.71571975462187)"/><path d="M743.3090021512706 451.6423668364767L829.0232867122088 451.6423668364767L829.0232867122088 463.5471285810514L792.5153506955129 463.5471285810514L792.5153506955129 556.4042701887344L779.8169381679666 556.4042701887344L779.8169381679666 463.5471285810514L743.3090021512706 463.5471285810514L743.3090021512706 451.6423668364767ZM861.5629688140464 556.4042701887344L848.8645562865 556.4042701887344L848.8645562865 440.53125587487364L861.5629688140464 440.53125587487364L861.5629688140464 488.9439536361442Q865.707589569565 481.8010965893994 872.5197587900717 478.62649345751277Q879.3539738656609 475.45189032562615 887.4448026809553 475.45189032562615L887.4448026809553 475.45189032562615Q896.0206403080655 475.45189032562615 903.0091763692326 478.7146768778429Q909.9756665753171 481.95541757497716 914.1864248960833 488.6353116649886Q918.3971832168495 495.2931598999174 918.3971832168495 505.61062007854883L918.3971832168495 505.61062007854883L918.3971832168495 556.4042701887344L905.698770689303 556.4042701887344L905.698770689303 510.0638828052231Q905.698770689303 496.8804614658607 900.0550317881714 491.721731376545Q894.4333387421223 486.56300128722927 886.1661430861675 486.56300128722927L886.1661430861675 486.56300128722927Q880.4562666197882 486.56300128722927 874.7463901534088 489.25259560729984Q869.0365136870295 491.964235782453 865.3107641780791 498.07093764031816Q861.5629688140464 504.17763949818334 861.5629688140464 514.3407786912369L861.5629688140464 514.3407786912369L861.5629688140464 556.4042701887344ZM980.3019442886382 557.9915717546777L980.3019442886382 557.9915717546777Q969.0365123414572 557.9915717546777 960.2181703084389 553.0753460712699Q951.4218741305032 548.1591203878622 946.4836025920129 538.8557695430279Q941.5673769086052 529.5744645532761 941.5673769086052 516.721731040152L941.5673769086052 516.721731040152Q941.5673769086052 503.8689975270277 946.4836025920129 494.5876925372759Q951.4218741305032 485.2843416924416 959.9756659025309 480.3681160090339Q968.5515035296412 475.45189032562615 979.5082935056664 475.45189032562615L979.5082935056664 475.45189032562615Q990.6194044672696 475.45189032562615 998.4677288766559 480.21379502345604Q1006.3380991411248 484.97569972128593 1010.4606740415609 493.15471195691043Q1014.5832489419969 501.33372419253493 1014.5832489419969 511.474817530506L1014.5832489419969 511.474817530506Q1014.5832489419969 514.1864577056592 1014.4289279564191 516.4130890689962Q1014.2746069708412 518.6176745772509 1013.9439191446031 520.3813429838544L1013.9439191446031 520.3813429838544L949.8345725645598 520.3813429838544L949.8345725645598 509.09386518159107L1008.3883636638016 509.09386518159107L1001.8848364144505 510.3725247763787Q1001.8848364144505 498.95277184362 995.6238135710075 492.7578865654246Q989.340744872482 486.56300128722927 979.1996515345108 486.56300128722927L979.1996515345108 486.56300128722927Q971.4174646903722 486.56300128722927 965.7737257892404 490.13442981060166Q960.1520327431913 493.7058583339741 957.0435671765523 500.4518899892331Q953.9571474649958 507.1979216444921 953.9571474649958 516.721731040152L953.9571474649958 516.721731040152Q953.9571474649958 526.0912194502339 957.1317505968825 532.9033886707405Q960.3063537287691 539.7376037463298 966.1044136154786 543.3090322697021Q971.8804276471056 546.8804607930746 979.9933023174825 546.8804607930746L979.9933023174825 546.8804607930746Q988.7234609301706 546.8804607930746 994.190832990642 543.5515366756101Q999.6582050511133 540.2226125581458 1003.0091750236604 534.4906902366838L1003.0091750236604 534.4906902366838L1012.9959473760537 540.3769335437237Q1009.9756652297449 545.7781680389473 1005.3019439522451 549.7464219538056Q1000.6282226747454 553.7146758686638 994.3451539762198 555.8531238116707Q988.0841311327769 557.9915717546777 980.3019442886382 557.9915717546777ZM1132.3742526480391 556.4042701887344L1095.2269868339495 556.4042701887344L1095.2269868339495 451.6423668364767L1132.5285736336173 451.6423668364767Q1151.0911836131208 451.6423668364767 1159.667021240231 459.42455368061536Q1168.242858867341 467.206740524754 1168.242858867341 480.5224369946117L1168.242858867341 480.5224369946117Q1168.242858867341 488.45894482432817 1163.6352751550894 494.89633450843155Q1159.0276914428373 501.33372419253493 1150.6282206563874 503.07534674405605L1150.6282206563874 503.07534674405605L1150.6282206563874 503.2296677296339Q1159.9756632113867 504.971290281155 1165.4650811269403 511.71732193641407Q1170.9324531874117 518.463353591673 1170.9324531874117 527.0391912187833L1170.9324531874117 527.0391912187833Q1170.9324531874117 540.3769335437237 1160.9456808350187 548.3795789386877Q1150.9368626275427 556.4042701887344 1132.3742526480391 556.4042701887344L1132.3742526480391 556.4042701887344ZM1107.9253993614961 509.57887399340706L1107.9253993614961 544.4995084441596L1135.3724889392656 544.4995084441596Q1146.659966741529 544.4995084441596 1152.1273388020004 539.8919247319076Q1157.5947108624719 535.2843410196556 1157.5947108624719 527.0391912187833L1157.5947108624719 527.0391912187833Q1157.5947108624719 518.6176745772509 1152.1273388020004 514.0982742853289Q1146.659966741529 509.57887399340706 1135.3724889392656 509.57887399340706L1135.3724889392656 509.57887399340706L1107.9253993614961 509.57887399340706ZM1107.9253993614961 463.5471285810514L1107.9253993614961 497.67411224883233L1132.682894619195 497.67411224883233Q1154.9051165424012 497.67411224883233 1154.9051165424012 480.5224369946117L1154.9051165424012 480.5224369946117Q1154.9051165424012 463.5471285810514 1132.682894619195 463.5471285810514L1132.682894619195 463.5471285810514L1107.9253993614961 463.5471285810514ZM1242.8460324666762 527.0391912187833L1242.8460324666762 505.12561126673285Q1242.8460324666762 496.24113166846683 1238.0841277688464 491.4130894053893Q1233.3222230710167 486.56300128722927 1224.5920644583284 486.56300128722927L1224.5920644583284 486.56300128722927Q1216.3248688023737 486.56300128722927 1210.6149923359944 490.13442981060166Q1204.9051158696147 493.7058583339741 1202.2155215495445 501.6423661636906L1202.2155215495445 501.6423661636906L1191.8980613709132 495.2931598999174Q1195.0726645027994 486.40868030165143 1203.6264562748274 480.9192623860975Q1212.2022939019375 475.45189032562615 1224.9007064294842 475.45189032562615L1224.9007064294842 475.45189032562615Q1233.4765440565943 475.45189032562615 1240.4650801177613 478.3839890516048Q1247.4536161789283 481.31608777758333 1251.4880076590343 487.2684686498707Q1255.5444449942229 493.22084952215806 1255.5444449942229 502.59033793224006L1255.5444449942229 502.59033793224006L1255.5444449942229 541.0162633411173Q1255.5444449942229 546.7261398074968 1261.562963431758 546.7261398074968L1261.562963431758 546.7261398074968Q1264.5832455780665 546.7261398074968 1267.4492067387973 545.9324890245251L1267.4492067387973 545.9324890245251L1266.8098769414037 555.9192613769184Q1263.635273809517 557.5065629428616 1258.5647271405314 557.5065629428616L1258.5647271405314 557.5065629428616Q1253.9571434282793 557.5065629428616 1250.2975314845767 555.7649403913406Q1246.659965395957 554.0233178398194 1244.5876550181974 550.451889316447Q1242.5153446404383 546.8804607930746 1242.5153446404383 541.4792262978508L1242.5153446404383 541.4792262978508L1242.5153446404383 539.8919247319076L1245.6899477723246 540.3769335437237Q1243.7940042352257 546.5718188219189 1239.1864205229735 550.451889316447Q1234.5788368107214 554.3319598109751 1228.8689603443422 556.1617657828264Q1223.159083877963 557.9915717546777 1217.6035283971614 557.9915717546777L1217.6035283971614 557.9915717546777Q1210.6149923359944 557.9915717546777 1204.5964738984594 555.6106194057627Q1198.5559096058419 553.2296670568478 1194.9844810824693 548.3795789386877Q1191.4130525590967 543.5515366756101 1191.4130525590967 536.4086796288653L1191.4130525590967 536.4086796288653Q1191.4130525590967 527.5242000305993 1197.3654334313842 521.7261401438898Q1203.3178143036716 515.9280802571802 1213.9439164534588 513.8557698794209L1213.9439164534588 513.8557698794209L1245.3813058011692 507.68293045630816L1245.3813058011692 518.1547116205174L1219.8301597604986 523.3795792750807Q1212.0479729163599 524.966880841024 1208.2340399870795 527.832842001755Q1204.4201070577988 530.698803162486 1204.4201070577988 535.7693498314716L1204.4201070577988 535.7693498314716Q1204.4201070577988 540.6855755148792 1208.3222234074096 543.7940410815181Q1212.2022939019375 546.8804607930746 1219.3451509486827 546.8804607930746L1219.3451509486827 546.8804607930746Q1223.9527346609343 546.8804607930746 1228.163492981701 545.6899846186171Q1232.3742513024672 544.4995084441596 1235.7031754199315 542.0303726749146Q1239.0320995373959 539.5832827607519 1240.9280430744948 535.8575332518017Q1242.8460324666762 532.1097378877689 1242.8460324666762 527.0391912187833L1242.8460324666762 527.0391912187833ZM1339.980069960373 477.0391918915695L1356.007406605384 477.0391918915695L1321.7261019520251 511.3204965449282L1318.7058198057166 514.3407786912369L1292.6917108083126 540.3769335437237L1292.6917108083126 524.5039178842906L1339.980069960373 477.0391918915695ZM1286.3425045445392 440.53125587487364L1299.0409170720854 440.53125587487364L1299.0409170720854 556.4042701887344L1286.3425045445392 556.4042701887344L1286.3425045445392 440.53125587487364ZM1312.2022925563656 511.95982634232206L1322.8504405612352 504.81696929557717L1357.9253959975654 556.4042701887344L1342.515343294866 556.4042701887344L1312.2022925563656 511.95982634232206ZM1409.5126968907225 557.9915717546777L1409.5126968907225 557.9915717546777Q1398.2472649435417 557.9915717546777 1389.4289229105234 553.0753460712699Q1380.610580877505 548.1591203878622 1375.6943551940972 538.8557695430279Q1370.7781295106897 529.5744645532761 1370.7781295106897 516.721731040152L1370.7781295106897 516.721731040152Q1370.7781295106897 503.8689975270277 1375.6943551940972 494.5876925372759Q1380.610580877505 485.2843416924416 1389.1864185046152 480.3681160090339Q1397.7622561317257 475.45189032562615 1408.7190461077507 475.45189032562615L1408.7190461077507 475.45189032562615Q1419.8301570693538 475.45189032562615 1427.6784814787402 480.21379502345604Q1435.548851743209 484.97569972128593 1439.6714266436452 493.15471195691043Q1443.7940015440813 501.33372419253493 1443.7940015440813 511.474817530506L1443.7940015440813 511.474817530506Q1443.7940015440813 514.1864577056592 1443.6396805585036 516.4130890689962Q1443.4853595729255 518.6176745772509 1443.1546717466877 520.3813429838544L1443.1546717466877 520.3813429838544L1379.023279311562 520.3813429838544L1379.023279311562 509.09386518159107L1437.599116265886 509.09386518159107L1431.095589016535 510.3725247763787Q1431.095589016535 498.95277184362 1424.8345661730918 492.7578865654246Q1418.5514974745665 486.56300128722927 1408.3883582815129 486.56300128722927L1408.3883582815129 486.56300128722927Q1400.6282172924566 486.56300128722927 1394.984478391325 490.13442981060166Q1389.3407394901933 493.7058583339741 1386.2543197786367 500.4518899892331Q1383.1679000670806 507.1979216444921 1383.1679000670806 516.721731040152L1383.1679000670806 516.721731040152Q1383.1679000670806 526.0912194502339 1386.3425031989668 532.9033886707405Q1389.5171063308535 539.7376037463298 1395.2931203624807 543.3090322697021Q1401.09118024919 546.8804607930746 1409.1820090644842 546.8804607930746L1409.1820090644842 546.8804607930746Q1417.9121676771724 546.8804607930746 1423.4015855927264 543.5515366756101Q1428.8689576531979 540.2226125581458 1432.1978817706622 534.4906902366838L1432.1978817706622 534.4906902366838L1442.2066999781382 540.3769335437237Q1439.1864178318292 545.7781680389473 1434.5126965543295 549.7464219538056Q1429.8169294217473 553.7146758686638 1423.5559065783045 555.8531238116707Q1417.2948837348613 557.9915717546777 1409.5126968907225 557.9915717546777ZM1480.6105795319327 556.4042701887344L1467.9121670043864 556.4042701887344L1467.9121670043864 477.0391918915695L1478.2296271830178 477.0391918915695L1479.9932955896215 490.0462463902715Q1483.3222197070859 482.74906835794883 1489.7375635361068 479.11150226932875Q1496.1749532202102 475.45189032562615 1505.3901206447144 475.45189032562615L1505.3901206447144 475.45189032562615Q1507.440385167391 475.45189032562615 1509.909520936636 475.76053229678183Q1512.356610850799 476.09122012302 1514.1202792574022 477.0391918915695L1514.1202792574022 477.0391918915695L1511.8936478940655 488.6353116649886Q1510.1520253425442 487.9959818675947 1508.0797149647847 487.66529404135656Q1506.0074045870256 487.3566520702009 1502.2155175128278 487.3566520702009L1502.2155175128278 487.3566520702009Q1497.2772459743373 487.3566520702009 1492.2948827256823 490.22261323093187Q1487.2904736219443 493.0665285365803 1483.96154950448 498.86458842328983Q1480.6105795319327 504.6626483099994 1480.6105795319327 513.5471279082653L1480.6105795319327 513.5471279082653L1480.6105795319327 556.4042701887344ZM1530.941266685385 446.8804621386468L1544.8962929526365 446.8804621386468L1540.7737180522004 486.0779924754132L1530.941266685385 486.0779924754132L1530.941266685385 446.8804621386468ZM1598.401583237975 557.9915717546777L1598.401583237975 557.9915717546777Q1586.805463464556 557.9915717546777 1577.0391496629882 553.0753460712699Q1567.294881716503 548.1591203878622 1562.0479682068571 539.0982739489359L1562.0479682068571 539.0982739489359L1572.8504371973045 531.3160871047972Q1576.333682300347 538.6353109922024 1583.0797139556057 542.7578858926386Q1589.825745610865 546.8804607930746 1599.3495550065245 546.8804607930746L1599.3495550065245 546.8804607930746Q1607.7710716480574 546.8804607930746 1612.5329763458872 543.6176742408578Q1617.294881043717 540.3769335437237 1617.294881043717 535.1300200340777L1617.294881043717 535.1300200340777Q1617.294881043717 531.8010959166133 1615.1343872456273 529.0233181762126Q1612.9959393026206 526.2455404358118 1606.9774208650856 524.966880841024L1606.9774208650856 524.966880841024L1587.929802073766 520.9986269261658Q1576.333682300347 518.6176745772509 1571.329273196609 513.0621190964494Q1566.324864092871 507.5065636156478 1566.324864092871 499.2614138147756L1566.324864092871 499.2614138147756Q1566.324864092871 492.7578865654246 1570.0726594569037 487.3566520702009Q1573.798408965854 481.95541757497716 1580.6987616066908 478.7146768778429Q1587.5991142475277 475.45189032562615 1596.9686026576096 475.45189032562615L1596.9686026576096 475.45189032562615Q1608.7190434166068 475.45189032562615 1616.809872231901 480.05947403787826Q1624.900701047195 484.6670577501303 1628.8689549620535 493.0665285365803L1628.8689549620535 493.0665285365803L1618.2428528122664 500.0550645977473Q1615.5312126371132 493.0665285365803 1609.5126941995782 489.82578783944604Q1603.4721299069606 486.56300128722927 1596.9686026576096 486.56300128722927L1596.9686026576096 486.56300128722927Q1591.2587261912304 486.56300128722927 1587.2022888560418 488.15030285317255Q1583.1678973759358 489.7376044191159 1581.0074035778466 492.5153821595166Q1578.8689556348395 495.2931598999174 1578.8689556348395 498.7764050029596L1578.8689556348395 498.7764050029596Q1578.8689556348395 502.28169596108444 1581.2499079837544 505.213794687063Q1583.6308603326697 508.1458934130416 1590.1343875820203 509.4245530078293L1590.1343875820203 509.4245530078293L1609.9756571563116 513.5471279082653Q1621.0867681179147 515.7737592716024 1625.5400308445892 520.844305940588Q1629.9932935712632 525.936898464656 1629.9932935712632 533.2340764969788L1629.9932935712632 533.2340764969788Q1629.9932935712632 540.6855755148792 1626.0250396564052 546.3293144160109Q1622.0567857415467 551.95100746206 1614.913928694802 554.9712896083689Q1607.7710716480574 557.9915717546777 1598.401583237975 557.9915717546777ZM1781.734914104426 524.8125598554462L1794.4333266319722 529.5744645532761Q1791.104402514508 538.458944151542 1784.9095172363127 544.8963338356455Q1778.714631958117 551.3337235197489 1770.3812987369151 554.6626476372132Q1762.0479655157128 557.9915717546777 1752.2155141488975 557.9915717546777L1752.2155141488975 557.9915717546777Q1737.290470258014 557.9915717546777 1726.4218637023187 551.3998610849965Q1715.5312112915408 544.8081504153154 1709.5788304192538 532.7490676851628Q1703.6264495469663 520.6899849550102 1703.6264495469663 504.02331851260556L1703.6264495469663 504.02331851260556Q1703.6264495469663 487.3566520702009 1709.5788304192538 475.29756934004837Q1715.5312112915408 463.2384866098958 1726.4218637023187 456.6467759402146Q1737.290470258014 450.0550652705334 1751.8848263226591 450.0550652705334L1751.8848263226591 450.0550652705334Q1762.0479655157128 450.0550652705334 1769.9844733454293 452.8328430109342Q1777.9209811751457 455.610620751335 1783.5647200762774 461.0779928118063Q1789.1864131223265 466.5674107273602 1792.5153372397908 474.5039185570767L1792.5153372397908 474.5039185570767L1779.9932915529052 480.3681160090339Q1776.4880005947803 471.3293154251901 1769.8962899250987 466.6335482926079Q1763.3266251105006 461.9598270151081 1752.8327980912086 461.9598270151081L1752.8327980912086 461.9598270151081Q1742.2066959414215 461.9598270151081 1734.1158671261273 466.96423611884603Q1726.0250383108328 471.9686452225839 1721.4835921638282 481.31608777758333Q1716.9641918719062 490.68557618766533 1716.9641918719062 504.02331851260556L1716.9641918719062 504.02331851260556Q1716.9641918719062 517.206739851968 1721.263133613003 526.6423658272975Q1725.5400294990168 536.0779918026271 1733.4765373287332 541.082400906365Q1741.4130451584497 546.0868100101029 1752.2155141488975 546.0868100101029L1752.2155141488975 546.0868100101029Q1762.6872953131065 546.0868100101029 1770.4694821572452 540.7737589352093Q1778.2296231463015 535.4607078603158 1781.734914104426 524.8125598554462L1781.734914104426 524.8125598554462ZM1849.3495516425942 475.45189032562615L1849.3495516425942 475.45189032562615Q1860.614983589775 475.45189032562615 1869.2790046372156 480.3681160090339Q1877.9209798295738 485.2843416924416 1882.8372055129812 494.5876925372759Q1887.7534311963886 503.8689975270277 1887.7534311963886 516.721731040152L1887.7534311963886 516.721731040152Q1887.7534311963886 529.5744645532761 1882.8372055129812 538.8557695430279Q1877.9209798295738 548.1591203878622 1869.2790046372156 553.0753460712699Q1860.614983589775 557.9915717546777 1849.3495516425942 557.9915717546777L1849.3495516425942 557.9915717546777Q1838.238440680991 557.9915717546777 1829.5082820683028 553.0753460712699Q1820.7781234556146 548.1591203878622 1815.8618977722072 538.8557695430279Q1810.9456720887993 529.5744645532761 1810.9456720887993 516.721731040152L1810.9456720887993 516.721731040152Q1810.9456720887993 503.8689975270277 1815.8618977722072 494.5876925372759Q1820.7781234556146 485.2843416924416 1829.5082820683028 480.3681160090339Q1838.238440680991 475.45189032562615 1849.3495516425942 475.45189032562615ZM1849.3495516425942 486.40868030165143L1849.3495516425942 486.40868030165143Q1841.2587228272996 486.40868030165143 1835.5488463609204 490.0462463902715Q1829.8169240394586 493.7058583339741 1826.730504327902 500.4518899892331Q1823.6440846163455 507.1979216444921 1823.6440846163455 516.721731040152L1823.6440846163455 516.721731040152Q1823.6440846163455 526.0912194502339 1826.730504327902 532.9033886707405Q1829.8169240394586 539.7376037463298 1835.5488463609204 543.3972156900323Q1841.2587228272996 547.0347817786524 1849.3495516425942 547.0347817786524L1849.3495516425942 547.0347817786524Q1857.4403804578883 547.0347817786524 1863.1502569242675 543.3972156900323Q1868.8821792457297 539.7376037463298 1871.9685989572863 532.9033886707405Q1875.0550186688424 526.0912194502339 1875.0550186688424 516.721731040152L1875.0550186688424 516.721731040152Q1875.0550186688424 507.1979216444921 1871.9685989572863 500.4518899892331Q1868.8821792457297 493.7058583339741 1863.1502569242675 490.0462463902715Q1857.4403804578883 486.40868030165143 1849.3495516425942 486.40868030165143ZM1917.7578399637337 457.99157310024987L1930.4562524912799 454.50832799720763L1930.4562524912799 534.4906902366838Q1930.4562524912799 540.3769335437237 1933.7851766087442 543.220848849372Q1937.1361465812915 546.0868100101029 1942.3610142358548 546.0868100101029L1942.3610142358548 546.0868100101029Q1946.968597948107 546.0868100101029 1950.2975220655712 544.4995084441596Q1953.6264461830356 542.9122068782164 1956.3380863581888 540.2226125581458L1956.3380863581888 540.2226125581458L1960.7693032297807 550.8487147079329Q1957.1317371411606 554.1776388253973 1952.1273280374226 556.0956282175787Q1947.1229189336846 557.9915717546777 1940.6193916843336 557.9915717546777L1940.6193916843336 557.9915717546777Q1934.578827391716 557.9915717546777 1929.3539597371528 555.8531238116707Q1924.107046227507 553.7146758686638 1921.0206265159504 549.0189087360816Q1917.9121609493113 544.3451874585819 1917.7578399637337 536.717321600021L1917.7578399637337 536.717321600021L1917.7578399637337 457.99157310024987ZM1901.8848243043008 477.0391918915695L1959.3583685044978 477.0391918915695L1959.3583685044978 487.9959818675947L1901.8848243043008 487.9959818675947L1901.8848243043008 477.0391918915695ZM1984.2701847477747 457.99157310024987L1996.968597275321 454.50832799720763L1996.968597275321 534.4906902366838Q1996.968597275321 540.3769335437237 2000.2975213927853 543.220848849372Q2003.6264455102496 546.0868100101029 2008.8733590198958 546.0868100101029L2008.8733590198958 546.0868100101029Q2013.480942732148 546.0868100101029 2016.8098668496123 544.4995084441596Q2020.1387909670766 542.9122068782164 2022.8504311422298 540.2226125581458L2022.8504311422298 540.2226125581458L2027.2816480138213 550.8487147079329Q2023.6440819252011 554.1776388253973 2018.6396728214631 556.0956282175787Q2013.6352637177256 557.9915717546777 2007.1317364683746 557.9915717546777L2007.1317364683746 557.9915717546777Q2001.091172175757 557.9915717546777 1995.8663045211938 555.8531238116707Q1990.6193910115476 553.7146758686638 1987.532971299991 549.0189087360816Q1984.4245057333524 544.3451874585819 1984.2701847477747 536.717321600021L1984.2701847477747 536.717321600021L1984.2701847477747 457.99157310024987ZM1968.3971690883413 477.0391918915695L2025.8486674334558 477.0391918915695L2025.8486674334558 487.9959818675947L1968.3971690883413 487.9959818675947L1968.3971690883413 477.0391918915695ZM2091.1043984777916 527.0391912187833L2091.1043984777916 505.12561126673285Q2091.1043984777916 496.24113166846683 2086.3424937799614 491.4130894053893Q2081.5805890821316 486.56300128722927 2072.8504304694434 486.56300128722927L2072.8504304694434 486.56300128722927Q2064.5832348134886 486.56300128722927 2058.8733583471094 490.13442981060166Q2053.16348188073 493.7058583339741 2050.451841705577 501.6423661636906L2050.451841705577 501.6423661636906L2040.1343815269456 495.2931598999174Q2043.3089846588323 486.40868030165143 2051.8848222859424 480.9192623860975Q2060.4606599130525 475.45189032562615 2073.159072440599 475.45189032562615L2073.159072440599 475.45189032562615Q2081.7349100677093 475.45189032562615 2088.7234461288767 478.3839890516048Q2095.6899363349607 481.31608777758333 2099.7463736701493 487.2684686498707Q2103.802811005338 493.22084952215806 2103.802811005338 502.59033793224006L2103.802811005338 502.59033793224006L2103.802811005338 541.0162633411173Q2103.802811005338 546.7261398074968 2109.821329442873 546.7261398074968L2109.821329442873 546.7261398074968Q2112.8416115891814 546.7261398074968 2115.7075727499127 545.9324890245251L2115.7075727499127 545.9324890245251L2115.0682429525186 555.9192613769184Q2111.8936398206324 557.5065629428616 2106.801047296564 557.5065629428616L2106.801047296564 557.5065629428616Q2102.2155094393947 557.5065629428616 2098.5558974956916 555.7649403913406Q2094.8962855519894 554.0233178398194 2092.846021029313 550.451889316447Q2090.7737106515533 546.8804607930746 2090.7737106515533 541.4792262978508L2090.7737106515533 541.4792262978508L2090.7737106515533 539.8919247319076L2093.94831378344 540.3769335437237Q2092.052370246341 546.5718188219189 2087.444786534089 550.451889316447Q2082.837202821837 554.3319598109751 2077.1273263554576 556.1617657828264Q2071.417449889078 557.9915717546777 2065.8618944082764 557.9915717546777L2065.8618944082764 557.9915717546777Q2058.8733583471094 557.9915717546777 2052.832794054492 555.6106194057627Q2046.8142756169568 553.2296670568478 2043.2428470935847 548.3795789386877Q2039.6714185702122 543.5515366756101 2039.6714185702122 536.4086796288653L2039.6714185702122 536.4086796288653Q2039.6714185702122 527.5242000305993 2045.6237994424996 521.7261401438898Q2051.576180314787 515.9280802571802 2062.2022824645737 513.8557698794209L2062.2022824645737 513.8557698794209L2093.639671812284 507.68293045630816L2093.639671812284 518.1547116205174L2068.0885257716136 523.3795792750807Q2060.3063389274753 524.966880841024 2056.4924059981945 527.832842001755Q2052.678473068914 530.698803162486 2052.678473068914 535.7693498314716L2052.678473068914 535.7693498314716Q2052.678473068914 540.6855755148792 2056.5805894185246 543.7940410815181Q2060.4606599130525 546.8804607930746 2067.6035169597976 546.8804607930746L2067.6035169597976 546.8804607930746Q2072.2111006720497 546.8804607930746 2076.421858992816 545.6899846186171Q2080.6105714584996 544.4995084441596 2083.9615414310465 542.0303726749146Q2087.290465548511 539.5832827607519 2089.1864090856097 535.8575332518017Q2091.1043984777916 532.1097378877689 2091.1043984777916 527.0391912187833L2091.1043984777916 527.0391912187833ZM2201.4218573108506 462.44483582692413L2201.4218573108506 462.44483582692413L2204.2657726164994 473.71026777410503Q2204.1114516309212 473.71026777410503 2203.8028096597654 473.71026777410503Q2203.4721218335276 473.71026777410503 2203.163479862372 473.71026777410503L2203.163479862372 473.71026777410503Q2195.381293018233 473.71026777410503 2191.170534697467 476.7966874856615Q2186.9597763767006 479.9051530523004 2186.9597763767006 486.71732227280705L2186.9597763767006 486.71732227280705L2179.1996353876443 482.74906835794883Q2179.1996353876443 476.55418307975344 2182.043550693293 471.9686452225839Q2184.909511854024 467.36106151033187 2189.825737537432 464.89192574108677Q2194.7419632208394 462.44483582692413 2200.6282065278792 462.44483582692413L2200.6282065278792 462.44483582692413Q2200.782527513457 462.44483582692413 2201.0250319193647 462.44483582692413Q2201.2454904701904 462.44483582692413 2201.4218573108506 462.44483582692413ZM2154.111452303707 546.2411309956808L2177.281645995463 546.2411309956808Q2188.5470779426437 546.2411309956808 2194.896284206417 551.3998610849965Q2201.2454904701904 556.5585911743121 2201.2454904701904 565.1344288014225L2201.2454904701904 565.1344288014225Q2201.2454904701904 572.9166156455613 2196.0867603808747 578.6264921119405Q2190.928030291559 584.3363685783199 2182.286055099201 587.4448341449588Q2173.644079906843 590.5312538565154 2162.8416109163954 590.5312538565154L2162.8416109163954 590.5312538565154Q2144.1026340962317 590.5312538565154 2134.82132910648 584.182047592742Q2125.540024116728 577.8328413289689 2125.540024116728 568.948361730703L2125.540024116728 568.948361730703Q2125.540024116728 562.5991554669297 2129.7507824374943 557.5947463631919Q2133.9615407582605 552.5903372594539 2143.948313110654 551.95100746206L2143.948313110654 551.95100746206L2142.8460203565264 554.3319598109751Q2137.4447858613025 552.9210250856921 2133.7190363523523 549.5039175478976Q2129.993286843402 546.0868100101029 2129.993286843402 539.5832827607519L2129.993286843402 539.5832827607519Q2129.993286843402 533.0797555114009 2134.82132910648 528.3839883788187Q2139.67141722464 523.710267101319 2149.1952266202998 522.5859284921091L2149.1952266202998 522.5859284921091L2157.5946974067497 526.8848702332056L2156.0073958408066 526.8848702332056Q2148.2472548517503 527.6785210161772 2144.9844682995335 530.7649407277336Q2141.721681747317 533.8734062943726 2141.721681747317 537.5109723829926L2141.721681747317 537.5109723829926Q2141.721681747317 541.9642351096668 2144.9844682995335 544.1026830526738Q2148.2472548517503 546.2411309956808 2154.111452303707 546.2411309956808L2154.111452303707 546.2411309956808ZM2162.6872899308178 579.9051517067282L2162.6872899308178 579.9051517067282Q2171.880411500239 579.9051517067282 2177.8327923725265 577.9871623145468Q2183.7851732448144 576.0912187774477 2186.6511344055452 573.0709366311389Q2189.517095566276 570.0506544848301 2189.517095566276 566.5674093817879L2189.517095566276 566.5674093817879Q2189.517095566276 562.2684676406916 2186.099988028481 559.7331943061988Q2182.682880490687 557.197920971706 2173.7984008924204 557.197920971706L2173.7984008924204 557.197920971706L2149.3495476058774 557.197920971706Q2144.279000936892 557.197920971706 2140.7737099787673 559.8213777265289Q2137.290464875725 562.444834481352 2137.290464875725 567.0303723385214L2137.290464875725 567.0303723385214Q2137.290464875725 572.9166156455613 2144.0364965309836 576.3998607486035Q2150.782528186243 579.9051517067282 2162.6872899308178 579.9051517067282ZM2161.562951321608 475.45189032562615L2161.562951321608 475.45189032562615Q2171.0867607172677 475.45189032562615 2178.4721221699206 478.86899786342076Q2185.8574836225735 482.28610540121537 2189.980058523009 488.3046238387504Q2194.1026334234452 494.34518813136793 2194.1026334234452 502.28169596108444L2194.1026334234452 502.28169596108444Q2194.1026334234452 510.0638828052231 2189.980058523009 516.1705846630882Q2185.8574836225735 522.2772865209535 2178.4721221699206 525.694394058748Q2171.0867607172677 529.1115015965427 2161.562951321608 529.1115015965427L2161.562951321608 529.1115015965427Q2145.8663025028354 529.1115015965427 2137.4447858613025 521.571819158312Q2129.02326921977 514.0321367200813 2129.02326921977 502.28169596108444L2129.02326921977 502.28169596108444Q2129.02326921977 494.34518813136793 2133.2340275405363 488.3046238387504Q2137.4447858613025 482.28610540121537 2144.7419638936253 478.86899786342076Q2152.039141925948 475.45189032562615 2161.562951321608 475.45189032562615ZM2161.562951321608 485.7693505042576L2161.562951321608 485.7693505042576Q2153.3178015207354 485.7693505042576 2147.7622460399343 490.2887507961795Q2142.2066905591328 494.8081510881014 2142.2066905591328 502.28169596108444L2142.2066905591328 502.28169596108444Q2142.2066905591328 509.57887399340706 2147.7622460399343 514.1864577056592Q2153.3178015207354 518.7940414179112 2161.562951321608 518.7940414179112L2161.562951321608 518.7940414179112Q2169.8301469775624 518.7940414179112 2175.385702458364 514.1864577056592Q2180.9412579391656 509.57887399340706 2180.9412579391656 502.28169596108444L2180.9412579391656 502.28169596108444Q2180.9412579391656 494.8081510881014 2175.385702458364 490.2887507961795Q2169.8301469775624 485.7693505042576 2161.562951321608 485.7693505042576ZM2252.2155074210364 557.9915717546777L2252.2155074210364 557.9915717546777Q2240.928029618773 557.9915717546777 2232.131733440837 553.0753460712699Q2223.313391407819 548.1591203878622 2218.397165724411 538.8557695430279Q2213.480940041003 529.5744645532761 2213.480940041003 516.721731040152L2213.480940041003 516.721731040152Q2213.480940041003 503.8689975270277 2218.397165724411 494.5876925372759Q2223.313391407819 485.2843416924416 2231.889229034929 480.3681160090339Q2240.465066662039 475.45189032562615 2251.4218566380646 475.45189032562615L2251.4218566380646 475.45189032562615Q2262.5329675996672 475.45189032562615 2270.381292009054 480.21379502345604Q2278.2296164184404 484.97569972128593 2282.3742371739586 493.15471195691043Q2286.496812074395 501.33372419253493 2286.496812074395 511.474817530506L2286.496812074395 511.474817530506Q2286.496812074395 514.1864577056592 2286.342491088817 516.4130890689962Q2286.166124248157 518.6176745772509 2285.857482277001 520.3813429838544L2285.857482277001 520.3813429838544L2221.7260898418754 520.3813429838544L2221.7260898418754 509.09386518159107L2280.3019267961995 509.09386518159107L2273.7983995468485 510.3725247763787Q2273.7983995468485 498.95277184362 2267.515330848323 492.7578865654246Q2261.25430800488 486.56300128722927 2251.0911688118263 486.56300128722927L2251.0911688118263 486.56300128722927Q2243.308981967688 486.56300128722927 2237.6872889216384 490.13442981060166Q2232.0435500205067 493.7058583339741 2228.9571303089506 500.4518899892331Q2225.8486647423115 507.1979216444921 2225.8486647423115 516.721731040152L2225.8486647423115 516.721731040152Q2225.8486647423115 526.0912194502339 2229.023267874198 532.9033886707405Q2232.1978710060844 539.7376037463298 2237.995930892794 543.3090322697021Q2243.793990779504 546.8804607930746 2251.884819594798 546.8804607930746L2251.884819594798 546.8804607930746Q2260.6149782074863 546.8804607930746 2266.10439612304 543.5515366756101Q2271.5717681835113 540.2226125581458 2274.9006923009756 534.4906902366838L2274.9006923009756 534.4906902366838L2284.9095105084516 540.3769335437237Q2281.889228362143 545.7781680389473 2277.215507084643 549.7464219538056Q2272.519739952061 553.7146758686638 2266.258717108618 555.8531238116707Q2259.9756484100926 557.9915717546777 2252.2155074210364 557.9915717546777Z " fill="#f5b571" transform="matrix(0.38268147099169814,0,0,0.3826814709916982,0,102.71571975462187)"/></g></svg>